<?xml version="1.0" standalone="no"?>
<!DOCTYPE svg PUBLIC "-//W3C//DTD SVG 20010904//EN"
 "http://www.w3.org/TR/2001/REC-SVG-20010904/DTD/svg10.dtd">
<svg version="1.0" xmlns="http://www.w3.org/2000/svg"
 width="984.000000pt" height="984.000000pt" viewBox="0 0 984.000000 984.000000"
 preserveAspectRatio="xMidYMid meet">
<metadata>
Created by potrace 1.14, written by Peter Selinger 2001-2017
</metadata>
<g transform="translate(0.000000,984.000000) scale(0.100000,-0.100000)"
fill="#000000" stroke="none">
<path d="M2090 9737 c-3 -3 -39 -7 -80 -11 -41 -4 -91 -9 -110 -12 -70 -11
-266 -56 -297 -69 -17 -7 -34 -11 -37 -8 -3 3 -12 1 -19 -5 -8 -7 -17 -9 -20
-5 -4 3 -7 2 -7 -4 0 -6 -16 -14 -36 -18 -20 -3 -44 -10 -53 -15 -9 -5 -43
-21 -76 -35 -210 -92 -398 -208 -565 -350 -56 -48 -233 -226 -270 -273 -19
-24 -43 -54 -54 -65 -31 -37 -166 -243 -166 -254 0 -6 -4 -13 -8 -15 -4 -1
-23 -34 -42 -73 -19 -38 -39 -73 -45 -77 -5 -4 -7 -8 -3 -8 4 0 -6 -29 -23
-65 -26 -58 -86 -228 -94 -265 -2 -8 -9 -35 -16 -60 -7 -25 -14 -52 -15 -60
-2 -8 -6 -31 -10 -50 -4 -19 -9 -42 -10 -50 -2 -8 -6 -33 -9 -55 -2 -22 -8
-65 -12 -95 -10 -70 -10 -414 -1 -500 4 -36 12 -90 19 -120 6 -30 12 -68 14
-85 2 -16 11 -55 20 -85 9 -30 18 -66 21 -79 6 -31 59 -183 82 -235 57 -133
182 -364 234 -431 158 -204 149 -194 249 -294 88 -87 172 -162 212 -190 12 -8
24 -18 27 -21 10 -14 189 -130 199 -130 6 0 11 -3 11 -7 0 -5 10 -13 23 -19
12 -6 58 -30 101 -52 44 -23 85 -42 92 -42 6 0 17 -7 24 -15 7 -9 15 -13 18
-11 2 3 14 0 26 -6 11 -7 26 -13 31 -14 6 -1 54 -18 108 -38 53 -19 98 -35
100 -35 1 1 22 -4 47 -11 187 -50 371 -73 580 -73 118 1 255 8 255 14 0 1 14
3 30 4 27 1 115 15 140 21 6 1 21 4 35 7 67 14 223 58 269 76 28 12 51 18 51
15 0 -3 12 2 28 10 15 8 45 23 67 32 95 40 174 80 234 116 34 21 65 38 68 38
12 0 240 169 300 222 65 58 177 173 223 228 25 30 52 61 61 70 8 9 19 23 22
31 4 8 23 34 41 59 45 58 134 206 179 296 45 90 118 264 110 264 -3 0 -1 6 4
13 6 6 14 26 18 42 5 17 9 32 10 35 65 214 95 418 95 645 0 203 -15 333 -56
510 -3 11 -6 29 -8 41 -2 11 -6 25 -9 31 -3 5 -8 20 -10 34 -6 30 -64 201 -84
249 -37 86 -117 245 -125 248 -4 2 -8 8 -8 14 0 15 -105 173 -178 268 -92 118
-308 334 -392 390 -12 8 -28 20 -34 25 -22 21 -163 115 -171 115 -5 0 -16 6
-24 14 -47 42 -411 206 -457 206 -11 0 -24 4 -29 9 -11 10 -101 33 -225 58
-19 4 -37 8 -40 8 -3 1 -32 5 -65 9 -33 5 -69 11 -80 13 -27 6 -400 15 -405
10z m246 -797 c41 -14 111 -84 124 -126 7 -19 12 -61 13 -94 2 -63 3 -65 62
-76 14 -2 55 -15 91 -28 59 -22 69 -23 98 -11 42 18 142 12 183 -9 45 -24 90
-79 104 -128 13 -44 21 -325 11 -343 -3 -5 -7 -23 -9 -39 -3 -32 -22 -66 -57
-104 -72 -80 -218 -79 -304 2 -31 28 -74 104 -71 123 4 24 -7 35 -63 62 -62
31 -78 36 -148 47 -81 12 -257 0 -276 -19 -4 -4 -15 -7 -24 -7 -9 0 -35 -13
-57 -29 -131 -95 -118 -224 27 -277 85 -31 76 -28 120 -38 14 -3 36 -8 50 -11
14 -3 34 -8 45 -9 11 -2 31 -6 45 -10 14 -3 36 -8 50 -10 93 -18 218 -48 290
-71 47 -15 87 -27 89 -25 2 1 7 -2 10 -7 3 -4 27 -18 54 -31 26 -13 47 -28 47
-33 0 -5 6 -9 14 -9 21 0 120 -100 159 -162 83 -129 114 -331 77 -493 -7 -27
-12 -56 -13 -62 0 -7 -4 -13 -9 -13 -4 0 -8 -9 -8 -20 0 -11 -4 -20 -8 -20 -5
0 -9 -6 -9 -13 0 -15 -68 -124 -92 -148 -9 -9 -25 -27 -37 -40 -29 -34 -82
-79 -93 -79 -5 0 -14 -6 -20 -14 -17 -21 -165 -91 -236 -112 -68 -20 -72 -21
-83 -23 -5 0 -8 -40 -7 -88 1 -167 -30 -238 -130 -290 -30 -16 -141 -27 -160
-15 -5 4 -15 7 -22 8 -35 6 -109 80 -128 129 -4 11 -9 71 -11 133 -1 62 -5
116 -8 121 -3 5 -23 12 -43 16 -21 4 -73 20 -116 37 l-78 30 -61 -30 c-97 -47
-198 -33 -266 36 -24 25 -56 82 -46 82 4 0 1 7 -7 16 -17 21 -20 396 -4 471
27 116 108 185 218 185 86 -1 184 -69 202 -141 19 -74 55 -130 107 -165 29
-20 58 -36 65 -36 7 0 13 -5 13 -12 0 -6 2 -9 5 -6 3 3 36 -4 73 -17 56 -19
84 -22 177 -20 125 3 158 10 247 53 76 36 108 64 137 117 37 70 26 146 -32
204 -30 30 -56 44 -127 65 -49 15 -93 25 -99 22 -5 -3 -11 -2 -13 3 -1 5 -21
11 -43 14 -22 4 -74 13 -115 22 -41 8 -85 16 -97 17 -13 1 -23 5 -23 8 0 3
-14 6 -31 7 -40 3 -167 42 -196 61 -13 8 -23 11 -23 8 0 -4 -12 1 -27 11 -14
9 -32 18 -39 19 -8 1 -20 8 -28 16 -7 7 -27 22 -42 33 -34 23 -124 115 -124
126 0 4 -7 14 -15 23 -19 18 -72 150 -82 202 -17 84 -9 225 16 299 13 39 28
76 33 83 6 6 7 12 3 12 -5 0 0 9 10 20 10 11 14 20 9 20 -5 0 -4 4 1 8 6 4 23
24 38 45 37 50 127 136 150 143 9 3 17 9 17 13 0 4 33 22 73 40 39 19 80 37
89 42 9 5 35 12 58 15 22 4 40 9 41 13 0 3 2 30 4 60 6 75 22 118 63 163 63
69 149 89 248 58z"/>
<path d="M6233 8606 c-13 -6 -23 -14 -23 -18 0 -5 -5 -8 -11 -8 -6 0 -16 -6
-23 -12 -11 -11 -134 -127 -354 -337 -254 -240 -356 -337 -430 -408 -47 -46
-86 -83 -87 -83 -1 0 -44 -42 -97 -92 -134 -130 -157 -174 -125 -245 20 -46
26 -53 257 -273 95 -91 216 -208 270 -260 54 -52 164 -158 244 -235 81 -77
186 -178 233 -224 136 -131 182 -154 234 -117 13 9 20 16 16 16 -4 0 -3 9 3
21 21 37 22 70 24 409 l1 334 30 6 c64 13 455 1 525 -16 14 -3 39 -7 55 -9 31
-4 70 -12 70 -15 0 -1 10 -3 23 -6 48 -9 58 -11 72 -17 8 -4 40 -15 70 -26
136 -50 298 -175 366 -283 88 -137 135 -288 161 -513 7 -66 9 -441 3 -780 -1
-82 -2 -154 -1 -160 1 -11 806 -13 817 -2 4 4 8 30 10 59 7 103 15 283 15 298
-1 8 -1 24 0 35 6 155 -3 539 -16 650 -3 22 -7 63 -10 90 -7 68 -22 166 -31
205 -2 8 -10 47 -19 85 -24 104 -50 196 -64 230 -5 11 -15 36 -22 55 -36 99
-138 282 -205 369 -27 34 -164 172 -199 200 -87 68 -308 195 -320 183 -3 -3
-5 -1 -5 5 0 6 -10 13 -22 16 -13 3 -57 17 -98 32 -41 15 -93 31 -115 36 -22
5 -44 11 -50 13 -21 6 -61 16 -85 20 -14 2 -36 7 -50 10 -36 8 -88 16 -140 22
-25 2 -63 7 -85 10 -79 11 -144 14 -395 19 -140 2 -262 4 -270 5 -13 0 -15 38
-15 283 1 179 -3 301 -11 335 -6 28 -10 52 -7 52 2 0 -4 11 -13 25 -18 27 -60
32 -101 11z"/>
<path d="M7485 4582 c-2 -2 -34 -6 -72 -8 -77 -5 -117 -10 -237 -29 -47 -8
-57 -10 -124 -29 -29 -8 -55 -15 -57 -15 -37 -9 -149 -44 -160 -50 -5 -3 -14
-7 -20 -8 -37 -9 -85 -29 -85 -35 0 -5 -7 -8 -15 -8 -16 0 -190 -84 -212 -102
-7 -6 -13 -7 -13 -3 0 5 -8 1 -17 -7 -10 -8 -49 -34 -87 -58 -38 -23 -74 -46
-80 -51 -6 -5 -56 -44 -111 -87 -109 -86 -231 -203 -310 -297 -27 -33 -56 -64
-62 -68 -7 -4 -13 -13 -13 -19 0 -7 -8 -21 -19 -32 -28 -31 -141 -203 -141
-214 0 -6 -6 -17 -13 -24 -12 -12 -116 -219 -122 -243 -1 -5 -8 -26 -16 -45
-7 -19 -12 -38 -11 -42 1 -5 -2 -8 -8 -8 -6 0 -9 -3 -8 -7 1 -5 -10 -46 -25
-93 -15 -47 -29 -94 -31 -105 -35 -166 -46 -220 -51 -266 -4 -30 -9 -72 -11
-94 -7 -55 -6 -361 1 -410 3 -22 8 -62 10 -89 3 -27 8 -59 12 -70 3 -12 7 -30
8 -41 4 -38 17 -98 26 -122 5 -13 6 -23 3 -23 -2 0 0 -8 5 -18 6 -11 12 -30
15 -43 6 -30 49 -160 71 -214 31 -77 110 -240 118 -243 4 -2 7 -7 7 -12 0 -8
69 -130 80 -140 3 -3 23 -32 45 -65 44 -66 48 -71 132 -170 90 -105 221 -233
298 -290 22 -17 42 -33 45 -36 9 -11 165 -117 205 -139 232 -131 457 -222 640
-260 33 -7 67 -15 75 -17 8 -3 22 -7 30 -8 8 -1 38 -5 65 -9 28 -3 68 -10 90
-13 56 -10 436 -10 518 0 65 8 81 10 137 22 14 2 37 7 53 10 63 12 85 17 133
31 28 8 61 17 74 19 12 2 28 9 36 16 8 6 14 9 14 6 0 -18 389 154 398 176 2 4
8 7 14 7 5 0 42 21 81 47 40 27 76 50 82 52 5 2 15 9 21 15 7 6 24 20 40 31
15 11 33 26 40 32 7 7 15 13 17 13 21 0 275 253 353 350 69 87 172 242 206
309 13 25 26 48 30 51 3 3 18 32 33 65 14 33 35 79 46 102 10 24 19 49 19 56
0 7 4 17 8 23 9 9 42 93 46 117 2 6 9 32 16 57 8 25 15 52 16 60 2 8 8 35 15
60 6 25 13 54 15 65 2 11 5 31 8 45 7 32 14 87 24 170 9 84 9 366 0 450 -10
88 -19 151 -24 175 -2 11 -9 45 -15 75 -6 30 -13 62 -16 70 -4 8 -5 19 -4 23
0 4 -4 17 -10 29 -6 11 -12 30 -14 42 -9 74 -117 328 -209 491 -27 47 -110
172 -129 193 -11 12 -16 22 -11 22 5 0 4 4 -1 8 -6 4 -33 34 -60 67 -53 65
-185 205 -224 239 -104 90 -155 131 -235 186 -28 19 -52 38 -54 43 -2 4 -9 7
-15 7 -6 0 -18 6 -26 14 -16 14 -303 165 -318 167 -11 2 -53 17 -78 29 -11 5
-38 14 -60 21 -22 6 -44 14 -50 18 -5 3 -14 6 -20 7 -5 1 -46 12 -90 24 -44
12 -89 23 -100 24 -11 2 -47 8 -80 14 -95 18 -156 25 -207 26 -27 0 -48 3 -48
6 0 5 -239 7 -245 2z m-198 -1109 c1 -98 2 -181 2 -184 1 -3 50 -5 111 -5 97
1 110 3 111 19 1 9 2 89 3 177 2 88 4 163 4 168 2 8 241 7 249 -2 3 -3 5 -84
5 -180 -1 -123 2 -177 10 -182 7 -4 39 -8 72 -10 238 -8 377 -48 460 -133 44
-45 103 -143 118 -196 6 -22 13 -47 16 -55 2 -8 4 -34 5 -57 0 -24 5 -43 9
-43 5 0 5 -8 0 -17 -5 -10 -8 -26 -7 -35 2 -10 0 -18 -3 -18 -4 0 -8 -14 -9
-31 -5 -66 -108 -200 -186 -240 -41 -21 -42 -31 -4 -36 44 -6 138 -46 182 -77
70 -50 144 -155 159 -227 3 -13 7 -34 10 -47 8 -35 9 -112 2 -157 -7 -47 -14
-79 -16 -82 -2 -2 -3 -6 -4 -10 -1 -5 -12 -30 -24 -57 -12 -27 -22 -50 -22
-53 0 -9 -81 -113 -89 -113 -4 0 -14 -11 -21 -25 -7 -13 -16 -22 -21 -20 -4 3
-9 2 -11 -2 -6 -14 -72 -59 -119 -80 -97 -45 -163 -59 -334 -69 -55 -3 -116
-7 -135 -8 l-35 -3 -2 -144 c-1 -79 -2 -163 -2 -186 l-1 -41 -127 1 -128 2 0
180 0 180 -112 3 c-103 2 -113 1 -114 -15 -1 -10 -2 -92 -2 -183 l-2 -165
-127 -2 -128 -2 0 185 0 184 -226 0 -227 0 7 38 c4 20 10 51 13 67 3 17 6 38
7 48 0 9 3 17 7 17 3 0 9 22 13 49 3 27 12 53 19 58 6 5 59 9 117 8 122 -1
146 6 156 49 10 44 11 516 1 516 -4 0 -5 6 0 13 11 17 10 467 -1 467 -5 0 -4
6 1 13 14 19 10 191 -6 221 -20 37 -66 48 -206 47 -69 0 -126 3 -126 7 -4 24
-3 282 1 283 3 1 104 3 225 4 l220 2 3 181 2 181 43 3 c23 2 80 2 127 1 l85
-1 2 -179z"/>
<path d="M7392 2955 c-4 -5 -7 -111 -7 -235 l0 -226 65 1 64 0 1 228 c0 142
-4 231 -10 235 -17 11 -106 8 -113 -3z"/>
<path d="M7775 2733 c0 -115 2 -210 5 -212 11 -9 87 23 131 55 132 96 100 260
-66 339 -30 14 -58 25 -62 25 -5 0 -9 -93 -8 -207z"/>
<path d="M7389 2256 c-1 0 -2 -123 -3 -273 l-1 -271 48 -4 c88 -6 82 -25 81
273 -1 145 -2 267 -3 272 -1 5 -116 9 -122 3z"/>
<path d="M7774 1985 c0 -180 3 -265 10 -265 6 0 29 5 51 10 138 36 217 102
251 210 43 139 -80 268 -291 306 l-21 4 0 -265z"/>
<path d="M1259 4533 c0 -21 -2 -60 -4 -88 -3 -42 -9 -176 -17 -377 -1 -21 1
-40 5 -44 3 -3 2 -17 -4 -31 -6 -17 -6 -22 2 -17 8 4 8 0 2 -12 -10 -23 -10
-55 0 -71 5 -7 3 -21 -2 -31 -6 -11 -8 -22 -4 -25 3 -3 7 -52 8 -109 3 -96 9
-176 21 -273 3 -22 7 -56 9 -75 2 -19 6 -48 9 -65 3 -16 9 -46 12 -65 3 -19 8
-46 10 -60 8 -40 45 -181 61 -230 15 -43 20 -62 24 -78 1 -4 15 -36 31 -72 17
-36 34 -74 39 -85 4 -11 22 -42 39 -70 16 -27 33 -57 37 -65 4 -8 17 -26 30
-40 13 -14 23 -28 23 -32 0 -16 128 -151 211 -223 42 -37 145 -105 158 -105 5
0 11 -4 13 -9 2 -7 121 -66 203 -101 35 -15 134 -49 157 -55 13 -2 59 -14 102
-24 44 -11 93 -23 110 -25 17 -3 40 -7 51 -10 77 -15 256 -35 365 -40 14 -1
31 -5 38 -9 6 -5 12 -4 12 1 0 4 26 7 58 5 31 -1 113 -3 182 -3 69 0 133 0
143 0 9 0 28 0 41 -1 l24 -1 1 -293 c0 -161 3 -305 6 -321 17 -73 28 -96 52
-105 50 -19 98 16 360 267 45 44 134 129 198 189 64 61 158 149 208 197 50 49
95 88 100 88 4 0 5 5 2 10 -3 6 -2 10 3 10 5 0 41 30 80 68 39 37 107 102 151
144 142 135 160 186 99 276 -17 26 -35 49 -39 52 -6 4 -234 222 -434 415 -86
82 -379 364 -515 494 -52 50 -114 101 -137 113 -42 23 -43 23 -77 4 -19 -10
-35 -21 -34 -25 0 -3 -1 -8 -2 -11 -11 -28 -13 -92 -17 -390 -2 -190 -6 -350
-8 -357 -3 -8 -65 -11 -232 -11 -125 1 -232 4 -238 6 -5 3 -21 7 -35 9 -86 10
-113 15 -185 33 -92 24 -90 23 -130 39 -166 64 -267 137 -366 261 -75 94 -147
281 -164 425 -2 17 -4 30 -5 30 -3 0 -6 34 -15 135 -3 41 -7 84 -8 95 -2 11 1
26 6 33 5 6 6 12 1 12 -11 0 -12 200 -1 217 4 6 4 14 -1 17 -5 3 -7 20 -5 38
2 18 5 135 7 261 l5 227 -415 0 -414 0 -1 -37z"/>
</g>
</svg>
